<svg width="32" height="33" viewBox="0 0 32 33" fill="none" xmlns="http://www.w3.org/2000/svg">
<path d="M11.9999 13.8333C13.4727 13.8333 14.6666 12.6394 14.6666 11.1667C14.6666 9.69391 13.4727 8.5 11.9999 8.5C10.5272 8.5 9.33325 9.69391 9.33325 11.1667C9.33325 12.6394 10.5272 13.8333 11.9999 13.8333Z" stroke="#9A9A9A" stroke-width="1.5" stroke-linecap="round" stroke-linejoin="round"/>
<path d="M17.3334 3.16669H12.0001C5.33341 3.16669 2.66675 5.83335 2.66675 12.5V20.5C2.66675 27.1667 5.33341 29.8334 12.0001 29.8334H20.0001C26.6667 29.8334 29.3334 27.1667 29.3334 20.5V13.8334" stroke="#9A9A9A" stroke-width="1.5" stroke-linecap="round" stroke-linejoin="round"/>
<path d="M21 7.16669H28.3333" stroke="#9A9A9A" stroke-width="1.5" stroke-linecap="round"/>
<path d="M24.6667 10.8333V3.5" stroke="#9A9A9A" stroke-width="1.5" stroke-linecap="round"/>
<path d="M3.56006 25.7666L10.1334 21.3533C11.1867 20.6466 12.7067 20.7266 13.6534 21.54L14.0934 21.9266C15.1334 22.82 16.8134 22.82 17.8534 21.9266L23.4001 17.1666C24.4401 16.2733 26.1201 16.2733 27.1601 17.1666L29.3334 19.0333" stroke="#9A9A9A" stroke-width="1.5" stroke-linecap="round" stroke-linejoin="round"/>
</svg>
