<svg width="15" height="15" viewBox="0 0 15 15" fill="none" xmlns="http://www.w3.org/2000/svg">
<path d="M10.0511 13.7555H5.38444C3.25527 13.7555 2.03027 12.5305 2.03027 10.4014V4.56803C2.03027 2.43887 3.25527 1.21387 5.38444 1.21387H10.0511C12.1803 1.21387 13.4053 2.43887 13.4053 4.56803V10.4014C13.4053 12.5305 12.1803 13.7555 10.0511 13.7555ZM5.38444 2.08887C3.71611 2.08887 2.90527 2.8997 2.90527 4.56803V10.4014C2.90527 12.0697 3.71611 12.8805 5.38444 12.8805H10.0511C11.7194 12.8805 12.5303 12.0697 12.5303 10.4014V4.56803C12.5303 2.8997 11.7194 2.08887 10.0511 2.08887H5.38444Z" fill="#797979"/>
<path d="M11.5101 5.8807H10.3434C9.45676 5.8807 8.73926 5.1632 8.73926 4.27653V3.10986C8.73926 2.8707 8.93759 2.67236 9.17676 2.67236C9.41592 2.67236 9.61426 2.8707 9.61426 3.10986V4.27653C9.61426 4.67903 9.94092 5.0057 10.3434 5.0057H11.5101C11.7493 5.0057 11.9476 5.20403 11.9476 5.4432C11.9476 5.68236 11.7493 5.8807 11.5101 5.8807Z" fill="#797979"/>
<path d="M7.71712 8.50586H5.38379C5.14462 8.50586 4.94629 8.30753 4.94629 8.06836C4.94629 7.82919 5.14462 7.63086 5.38379 7.63086H7.71712C7.95629 7.63086 8.15462 7.82919 8.15462 8.06836C8.15462 8.30753 7.95629 8.50586 7.71712 8.50586Z" fill="#797979"/>
<path d="M10.0505 10.8394H5.38379C5.14462 10.8394 4.94629 10.641 4.94629 10.4019C4.94629 10.1627 5.14462 9.96436 5.38379 9.96436H10.0505C10.2896 9.96436 10.488 10.1627 10.488 10.4019C10.488 10.641 10.2896 10.8394 10.0505 10.8394Z" fill="#797979"/>
</svg>
