<svg width="12" height="13" viewBox="0 0 12 13" fill="none" xmlns="http://www.w3.org/2000/svg">
<path d="M5.76646 11.674C2.91682 11.674 0.600586 9.35781 0.600586 6.50816C0.600586 3.65852 2.91682 1.34229 5.76646 1.34229C8.61611 1.34229 10.9323 3.65852 10.9323 6.50816C10.9323 9.35781 8.61611 11.674 5.76646 11.674ZM5.76646 2.06311C3.31568 2.06311 1.32141 4.05737 1.32141 6.50816C1.32141 8.95895 3.31568 10.9532 5.76646 10.9532C8.21725 10.9532 10.2115 8.95895 10.2115 6.50816C10.2115 4.05737 8.21725 2.06311 5.76646 2.06311Z" fill="#797979"/>
<path d="M5.76666 7.34914C5.56964 7.34914 5.40625 7.18575 5.40625 6.98873V4.586C5.40625 4.38897 5.56964 4.22559 5.76666 4.22559C5.96368 4.22559 6.12707 4.38897 6.12707 4.586V6.98873C6.12707 7.18575 5.96368 7.34914 5.76666 7.34914Z" fill="#797979"/>
<path d="M5.76668 8.91084C5.70421 8.91084 5.64174 8.89642 5.58407 8.8724C5.52641 8.84837 5.47355 8.81473 5.42549 8.77148C5.38224 8.72343 5.3486 8.67537 5.32458 8.6129C5.30055 8.55523 5.28613 8.49276 5.28613 8.43029C5.28613 8.36782 5.30055 8.30535 5.32458 8.24768C5.3486 8.19002 5.38224 8.13716 5.42549 8.0891C5.47355 8.04586 5.52641 8.01222 5.58407 7.98819C5.6994 7.94013 5.83396 7.94013 5.94929 7.98819C6.00695 8.01222 6.05981 8.04586 6.10787 8.0891C6.15112 8.13716 6.18476 8.19002 6.20878 8.24768C6.23281 8.30535 6.24723 8.36782 6.24723 8.43029C6.24723 8.49276 6.23281 8.55523 6.20878 8.6129C6.18476 8.67537 6.15112 8.72343 6.10787 8.77148C6.05981 8.81473 6.00695 8.84837 5.94929 8.8724C5.89162 8.89642 5.82915 8.91084 5.76668 8.91084Z" fill="#797979"/>
</svg>
