<svg width="21" height="26" viewBox="0 0 21 26" fill="none" xmlns="http://www.w3.org/2000/svg">
<path d="M15.8934 0.511963H7.71781H7.0843L6.63663 0.959583L0.44762 7.14898L0 7.5966V8.22982V20.9901C0 23.2662 1.85161 25.1181 4.12806 25.1181H15.8934C18.1691 25.1181 20.0207 23.2662 20.0207 20.9901V4.64002C20.0207 2.36357 18.1691 0.511963 15.8934 0.511963ZM18.4926 20.9901C18.4926 22.4259 17.3289 23.5896 15.8934 23.5896H4.12806C2.69187 23.5896 1.52817 22.4259 1.52817 20.9901V8.22977H5.55146C6.74741 8.22977 7.71781 7.26004 7.71781 6.06376V2.04043H15.8934C17.3289 2.04043 18.4926 3.20412 18.4926 4.64002V20.9901Z" fill="#BC1C26"/>
<path d="M5.97015 12.6605H4.59908C4.33802 12.6605 4.18164 12.8303 4.18164 13.0846V16.6292C4.18164 16.9362 4.38368 17.1385 4.6642 17.1385C4.93866 17.1385 5.14065 16.9362 5.14065 16.6292V15.5524C5.14065 15.5262 5.15406 15.5131 5.18025 15.5131H5.97015C6.93589 15.5131 7.51707 14.9255 7.51707 14.09C7.51711 13.2414 6.94262 12.6605 5.97015 12.6605ZM5.91113 14.6839H5.18025C5.15406 14.6839 5.14065 14.6709 5.14065 14.645V13.5286C5.14065 13.5024 5.15406 13.4894 5.18025 13.4894H5.91113C6.31579 13.4894 6.55738 13.731 6.55738 14.09C6.55743 14.449 6.31579 14.6839 5.91113 14.6839Z" fill="#BC1C26"/>
<path d="M9.73206 12.6605H8.68111C8.42006 12.6605 8.26367 12.8303 8.26367 13.0846V16.6815C8.26367 16.9362 8.42001 17.0993 8.68111 17.0993H9.73206C10.6783 17.0993 11.2662 16.799 11.5011 16.0745C11.5857 15.8198 11.632 15.5131 11.632 14.8799C11.632 14.2467 11.5856 13.94 11.5011 13.6853C11.2662 12.9608 10.6783 12.6605 9.73206 12.6605ZM10.581 15.7416C10.4696 16.0939 10.1502 16.2443 9.70587 16.2443H9.26229C9.23609 16.2443 9.22269 16.2312 9.22269 16.2051V13.5548C9.22269 13.5286 9.23609 13.5155 9.26229 13.5155H9.70587C10.1502 13.5155 10.4696 13.6659 10.581 14.0182C10.6267 14.1686 10.6589 14.4296 10.6589 14.8799C10.6589 15.3302 10.6266 15.5913 10.581 15.7416Z" fill="#BC1C26"/>
<path d="M15.0639 12.6605H12.9103C12.6492 12.6605 12.4922 12.8303 12.4922 13.0846V16.6292C12.4922 16.9362 12.6949 17.1385 12.9754 17.1385C13.2492 17.1385 13.4519 16.9362 13.4519 16.6292V15.3628C13.4519 15.3369 13.4646 15.3238 13.4908 15.3238H14.7445C15.025 15.3238 15.188 15.1541 15.188 14.9125C15.188 14.6708 15.025 14.5014 14.7445 14.5014H13.4908C13.4646 14.5014 13.4519 14.4883 13.4519 14.4622V13.5286C13.4519 13.5024 13.4646 13.4894 13.4908 13.4894H15.0639C15.3317 13.4894 15.5082 13.3132 15.5082 13.0783C15.5082 12.8367 15.3316 12.6605 15.0639 12.6605Z" fill="#BC1C26"/>
</svg>
