<svg width="19" height="18" viewBox="0 0 19 18" fill="none" xmlns="http://www.w3.org/2000/svg">
<path d="M16.25 4.48499C13.7525 4.23749 11.24 4.10999 8.735 4.10999C7.25 4.10999 5.765 4.18499 4.28 4.33499L2.75 4.48499" stroke="#FF0000" stroke-width="1.5" stroke-linecap="round" stroke-linejoin="round"/>
<path d="M6.875 3.7275L7.04 2.745C7.16 2.0325 7.25 1.5 8.5175 1.5H10.4825C11.75 1.5 11.8475 2.0625 11.96 2.7525L12.125 3.7275" stroke="#FF0000" stroke-width="1.5" stroke-linecap="round" stroke-linejoin="round"/>
<path d="M14.6375 6.85498L14.15 14.4075C14.0675 15.585 14 16.5 11.9075 16.5H7.09255C5.00005 16.5 4.93255 15.585 4.85005 14.4075L4.36255 6.85498" stroke="#FF0000" stroke-width="1.5" stroke-linecap="round" stroke-linejoin="round"/>
<path d="M8.24756 12.375H10.7451" stroke="#FF0000" stroke-width="1.5" stroke-linecap="round" stroke-linejoin="round"/>
<path d="M7.625 9.375H11.375" stroke="#FF0000" stroke-width="1.5" stroke-linecap="round" stroke-linejoin="round"/>
</svg>
