<svg width="20" height="20" viewBox="0 0 20 20" fill="none" xmlns="http://www.w3.org/2000/svg">
<path d="M19.5 10C19.5 4.75329 15.2467 0.5 10 0.5C4.75329 0.5 0.5 4.75329 0.5 10C0.5 14.7417 3.97401 18.6719 8.51562 19.3846V12.7461H6.10352V10H8.51562V7.90703C8.51562 5.52609 9.93391 4.21094 12.1039 4.21094C13.1433 4.21094 14.2305 4.39648 14.2305 4.39648V6.73438H13.0325C11.8524 6.73438 11.4844 7.46667 11.4844 8.21795V10H14.1191L13.6979 12.7461H11.4844V19.3846C16.026 18.6719 19.5 14.7417 19.5 10Z" fill="#1877F2"/>
<path d="M13.6979 12.7461L14.1191 10H11.4844V8.21795C11.4844 7.46667 11.8524 6.73438 13.0325 6.73438H14.2305V4.39648C14.2305 4.39648 13.1433 4.21094 12.1039 4.21094C9.93391 4.21094 8.51562 5.52609 8.51562 7.90703V10H6.10352V12.7461H8.51562V19.3846C8.99929 19.4605 9.49502 19.5 10 19.5C10.505 19.5 11.0007 19.4605 11.4844 19.3846V12.7461H13.6979Z" fill="white"/>
</svg>
