<svg width="18" height="18" viewBox="0 0 18 18" fill="none" xmlns="http://www.w3.org/2000/svg">
<path fill-rule="evenodd" clip-rule="evenodd" d="M17.16 9.19323C17.16 8.5905 17.1059 8.01095 17.0055 7.45459H9V10.7425H13.5746C13.3775 11.8051 12.7786 12.7053 11.8784 13.308V15.4407H14.6255C16.2327 13.961 17.16 11.7819 17.16 9.19323Z" fill="#4285F4"/>
<path fill-rule="evenodd" clip-rule="evenodd" d="M9.00022 17.5002C11.2952 17.5002 13.2193 16.7391 14.6257 15.4409L11.8786 13.3082C11.1175 13.8182 10.1439 14.1196 9.00022 14.1196C6.78635 14.1196 4.91248 12.6243 4.24407 10.6152H1.4043V12.8175C2.80294 15.5955 5.67749 17.5002 9.00022 17.5002Z" fill="#34A853"/>
<path fill-rule="evenodd" clip-rule="evenodd" d="M4.24387 10.6149C4.07387 10.1049 3.97728 9.56012 3.97728 8.9999C3.97728 8.43967 4.07387 7.89489 4.24387 7.38489V5.18262H1.40409C0.82841 6.33012 0.5 7.6283 0.5 8.9999C0.5 10.3715 0.82841 11.6697 1.40409 12.8172L4.24387 10.6149Z" fill="#FBBC05"/>
<path fill-rule="evenodd" clip-rule="evenodd" d="M9.00022 3.88069C10.2482 3.88069 11.3686 4.30955 12.2495 5.15183L14.6875 2.71387C13.2155 1.34227 11.2914 0.5 9.00022 0.5C5.67748 0.5 2.80294 2.40478 1.4043 5.18273L4.24407 7.38501C4.91248 5.37592 6.78635 3.88069 9.00022 3.88069Z" fill="#EA4335"/>
</svg>
