<svg width="155" height="33" viewBox="0 0 155 33" fill="none" xmlns="http://www.w3.org/2000/svg">
<g clip-path="url(#clip0_86_2210)">
<path fill-rule="evenodd" clip-rule="evenodd" d="M16.4697 3.76777L18.6555 0L24.8522 3.56152L22.6672 7.32847C22.2835 7.9893 22.8579 8.79285 23.6105 8.64847L27.798 7.8441L29.1532 14.8376L24.9657 15.6412C18.1921 16.9414 13.0208 9.71437 16.4697 3.76777Z" fill="#3A724F"/>
<path fill-rule="evenodd" clip-rule="evenodd" d="M12.6835 29.2318L10.4977 32.9996L4.30021 29.4389L6.48596 25.6711C6.86973 25.0103 6.29532 24.2068 5.54187 24.3511L1.35521 25.1547L0 18.162L4.18749 17.3584C10.9611 16.0582 16.1316 23.2852 12.6835 29.2318Z" fill="#DC8E43"/>
<path fill-rule="evenodd" clip-rule="evenodd" d="M12.8725 3.76777L10.6876 0L4.49006 3.56152L6.67581 7.32847C7.05875 7.9893 6.48517 8.79285 5.73172 8.64847L1.54423 7.8441L0.190674 14.8376L4.37733 15.6412C11.1517 16.9414 16.3231 9.71437 12.8733 3.76777H12.8725Z" fill="#14424C"/>
<path fill-rule="evenodd" clip-rule="evenodd" d="M16.2872 29.2318L18.4713 32.9996L24.6688 29.4389L22.4831 25.6711C22.1001 25.0103 22.6737 24.2068 23.4272 24.3511L27.6138 25.1547L28.969 18.162L24.7816 17.3584C18.008 16.0582 12.8374 23.2852 16.2856 29.2318H16.2872Z" fill="#C85D1B"/>
<path d="M135.201 24.8763V17.8638C135.201 16.8919 135.426 16.0199 135.875 15.2485C136.34 14.4615 136.999 13.8444 137.852 13.3964C138.705 12.9492 139.72 12.7257 140.898 12.7257C141.448 12.7203 141.996 12.7903 142.526 12.9336C143.023 13.0573 143.472 13.2347 143.875 13.4657C144.293 13.6818 144.65 13.9442 144.945 14.2527H144.991C145.307 13.9398 145.667 13.6746 146.061 13.4657C146.493 13.2291 146.954 13.0502 147.433 12.9336C147.972 12.7913 148.527 12.7214 149.084 12.7257C150.262 12.7257 151.278 12.9484 152.13 13.3964C152.983 13.8444 153.641 14.4606 154.106 15.2485C154.572 16.0199 154.804 16.8911 154.804 17.8638V24.8763H151.176V17.9793C151.176 17.594 151.076 17.2467 150.875 16.9381C150.69 16.6154 150.426 16.3446 150.107 16.1511C149.771 15.9476 149.384 15.8432 148.991 15.8499C148.572 15.8499 148.192 15.9506 147.852 16.1511C147.533 16.3444 147.269 16.6152 147.084 16.9381C146.896 17.2528 146.8 17.6132 146.805 17.9793V24.8763H143.201V17.9793C143.201 17.594 143.1 17.2467 142.898 16.9381C142.709 16.6107 142.437 16.3391 142.108 16.1511C141.772 15.9476 141.384 15.8432 140.991 15.8499C140.573 15.8499 140.193 15.9506 139.852 16.1511C139.533 16.3444 139.269 16.6152 139.085 16.9381C138.897 17.253 138.8 17.6132 138.805 17.9793V24.8763H135.201ZM127.318 25.1543C126.094 25.1543 125.031 24.9233 124.133 24.4597C123.249 23.9811 122.567 23.3409 122.086 22.539C121.605 21.7215 121.365 20.8181 121.365 19.8306V13.0029H124.97V19.7382C124.97 20.1548 125.07 20.5409 125.272 20.8956C125.473 21.2347 125.745 21.5127 126.085 21.7289C126.442 21.9294 126.846 22.03 127.295 22.03C127.729 22.03 128.116 21.9294 128.458 21.7289C128.814 21.5127 129.093 21.2347 129.295 20.8956C129.496 20.5409 129.597 20.1548 129.597 19.7382V13.0029H133.201V19.8306C133.201 20.8181 132.968 21.7215 132.503 22.539C132.038 23.3409 131.365 23.982 130.481 24.4597C129.612 24.9225 128.558 25.1543 127.318 25.1543ZM109.755 24.8763V22.03H115.499C115.654 22.03 115.793 21.9987 115.918 21.9368C116.041 21.8601 116.142 21.7594 116.219 21.6365C116.295 21.5149 116.336 21.3746 116.336 21.2314C116.336 21.0883 116.295 20.9479 116.219 20.8263C116.147 20.7074 116.042 20.611 115.918 20.5483C115.792 20.4709 115.647 20.4308 115.499 20.4328H113.406C112.63 20.4328 111.925 20.3091 111.29 20.0624C110.687 19.8137 110.169 19.3954 109.801 18.8587C109.445 18.3035 109.267 17.5857 109.267 16.7063C109.267 16.0273 109.429 15.4102 109.755 14.855C110.094 14.3015 110.565 13.8401 111.127 13.5119C111.713 13.1733 112.38 12.9975 113.057 13.0029H118.8V15.873H113.615C113.409 15.8689 113.209 15.9436 113.057 16.0818C112.989 16.1479 112.936 16.2272 112.899 16.3147C112.863 16.4023 112.846 16.4962 112.847 16.5908C112.847 16.8069 112.918 16.9917 113.057 17.146C113.209 17.2842 113.409 17.3589 113.615 17.3547H115.661C116.529 17.3547 117.274 17.4859 117.894 17.7474C118.529 17.9949 119.018 18.3959 119.359 18.9519C119.716 19.5072 119.894 20.2241 119.894 21.1035C119.894 21.7982 119.716 22.431 119.359 23.001C119.021 23.5693 118.54 24.0401 117.963 24.3672C117.39 24.7071 116.739 24.8763 116.01 24.8763H109.755ZM101.902 12.7257C102.91 12.7257 103.801 12.8874 104.576 13.2116C105.337 13.5005 106.022 13.9597 106.576 14.5539C107.141 15.136 107.577 15.83 107.855 16.5908C108.149 17.3622 108.297 18.2185 108.297 19.1598C108.297 20.3322 108.049 21.3741 107.553 22.2841C107.094 23.1562 106.402 23.8851 105.553 24.3903C104.7 24.8994 103.708 25.1543 102.577 25.1543C102.096 25.1543 101.639 25.0924 101.204 24.9695C100.793 24.8491 100.401 24.6696 100.042 24.4366C99.7035 24.2079 99.4115 23.9173 99.1818 23.5802H99.1113V29.8997H95.5074V19.159C95.5074 17.8473 95.7709 16.7129 96.2981 15.7567C96.8091 14.8155 97.5849 14.0432 98.5303 13.5342C99.4918 12.9946 100.616 12.7248 101.902 12.7248V12.7257ZM101.902 15.8268C101.344 15.8268 100.856 15.9654 100.438 16.2435C100.034 16.5058 99.7239 16.8762 99.5067 17.3547C99.2904 17.8167 99.1818 18.3423 99.1818 18.928C99.1818 19.5146 99.2904 20.0393 99.5067 20.5021C99.7239 20.9649 100.034 21.3354 100.438 21.6134C100.856 21.8757 101.344 22.0069 101.902 22.0069C102.46 22.0069 102.941 21.8749 103.344 21.6134C103.749 21.3334 104.071 20.9494 104.274 20.5021C104.506 20.0393 104.623 19.5146 104.623 18.928C104.623 18.3423 104.506 17.8176 104.274 17.3547C104.057 16.8762 103.747 16.505 103.344 16.2435C102.941 15.9654 102.46 15.8268 101.902 15.8268ZM90.0301 24.8763V13.0029H93.6581V24.8763H90.0301ZM91.8437 11.6606C91.2701 11.6606 90.7745 11.4527 90.3559 11.0361C89.9373 10.6194 89.7276 10.1253 89.7276 9.55437C89.7276 8.98347 89.9373 8.49012 90.3559 8.0735C90.7745 7.6412 91.2701 7.42505 91.8437 7.42505C92.4173 7.42505 92.9138 7.6412 93.3324 8.0735C93.751 8.49012 93.9599 8.98347 93.9599 9.55437C93.9599 10.1253 93.751 10.6186 93.3324 11.0361C92.9138 11.4527 92.4173 11.6606 91.8437 11.6606ZM82.1459 25.1543C80.9216 25.1543 79.8209 24.8845 78.8436 24.3441C77.885 23.8211 77.0827 23.0545 76.5186 22.1224C75.9608 21.1811 75.6815 20.1243 75.6815 18.9511C75.6815 17.7631 75.9608 16.7063 76.5186 15.7806C77.0827 14.8486 77.885 14.082 78.8436 13.5589C79.8209 13.0029 80.9216 12.7257 82.1459 12.7257C83.3709 12.7257 84.4634 13.0029 85.4249 13.5589C86.3802 14.0783 87.1758 14.8462 87.7267 15.7806C88.3003 16.7063 88.5871 17.7631 88.5871 18.9511C88.5871 20.1243 88.3003 21.1811 87.7267 22.1224C87.1758 23.0568 86.3802 23.8247 85.4249 24.3441C84.4485 24.8845 83.3552 25.1543 82.1459 25.1543ZM82.1459 22.03C82.7195 22.03 83.2159 21.8906 83.6345 21.6134C84.0532 21.3357 84.3902 20.9521 84.6109 20.5021C84.8439 20.0393 84.9599 19.5146 84.9599 18.928C84.9599 18.3571 84.8439 17.8407 84.6109 17.377C84.3901 16.9273 84.0531 16.544 83.6345 16.2666C83.2159 15.9885 82.7195 15.8499 82.1459 15.8499C81.5723 15.8499 81.0683 15.9885 80.6348 16.2666C80.2159 16.5443 79.8787 16.9278 79.6576 17.3778C79.4207 17.8605 79.3015 18.3918 79.3094 18.9288C79.3094 19.5146 79.4255 20.0393 79.6576 20.5021C79.8788 20.9521 80.216 21.3356 80.6348 21.6134C81.0683 21.8906 81.5723 22.03 82.1459 22.03ZM63.9678 29.5755V26.4966H69.9199C70.1528 26.4966 70.3468 26.4198 70.5018 26.2656C70.5774 26.1991 70.6373 26.1169 70.6774 26.0248C70.7175 25.9327 70.7368 25.833 70.7339 25.7326V23.1174H70.6643C70.3698 23.4582 70.034 23.7614 69.6646 24.0199C69.3231 24.2674 68.9352 24.4522 68.5017 24.576C68.0403 24.705 67.5627 24.7672 67.0835 24.7608C66.0292 24.7608 65.0834 24.5133 64.2463 24.0199C63.4249 23.5109 62.7734 22.8088 62.2926 21.9137C61.8284 21.0194 61.5955 20.0005 61.5955 18.8587C61.5955 17.7326 61.8359 16.7063 62.3166 15.7806C62.8123 14.855 63.5334 14.1141 64.4792 13.5589C65.4241 13.0029 66.5796 12.7257 67.9439 12.7257C69.2461 12.7257 70.37 12.9954 71.3158 13.5358C72.2655 14.0489 73.0419 14.8295 73.5479 15.7798C74.0751 16.7368 74.3387 17.8638 74.3387 19.1598V26.103C74.3387 27.1673 74.0212 28.0088 73.3855 28.6259C72.7655 29.2587 71.9051 29.5746 70.8043 29.5746L63.9678 29.5755ZM67.9671 21.752C68.5249 21.752 69.0057 21.6282 69.4093 21.3816C69.8076 21.1242 70.1287 20.7644 70.3385 20.3404C70.559 19.8941 70.6706 19.4023 70.6643 18.9049C70.6643 18.3497 70.5565 17.8407 70.3393 17.3778C70.1222 16.915 69.8122 16.552 69.4085 16.2897C69.0057 16.0116 68.5249 15.873 67.9663 15.873C67.4242 15.873 66.9434 16.0042 66.5249 16.2666C66.122 16.5289 65.812 16.8837 65.5949 17.3308C65.3785 17.7788 65.2699 18.2796 65.2699 18.8356C65.2699 19.376 65.3777 19.8693 65.5949 20.3173C65.812 20.7488 66.122 21.0961 66.5257 21.3585C66.9434 21.6208 67.4242 21.752 67.9671 21.752ZM54.2691 25.1543C53.0448 25.1543 51.9441 24.8845 50.9677 24.3441C50.0087 23.8213 49.2061 23.0547 48.6418 22.1224C48.084 21.1811 47.8047 20.1243 47.8047 18.9511C47.8047 17.7631 48.084 16.7063 48.6418 15.7806C49.2061 14.8484 50.0087 14.0818 50.9677 13.5589C51.9441 13.0029 53.0448 12.7257 54.2691 12.7257C55.4942 12.7257 56.5866 13.0029 57.5481 13.5589C58.5033 14.0784 59.2989 14.8463 59.8499 15.7806C60.4235 16.7063 60.7103 17.7631 60.7103 18.9511C60.7103 20.1243 60.4235 21.1811 59.8499 22.1224C59.2989 23.0568 58.5033 23.8247 57.5481 24.3441C56.5717 24.8845 55.4784 25.1543 54.2691 25.1543ZM54.2691 22.03C54.8427 22.03 55.3383 21.8906 55.7577 21.6134C56.1763 21.3355 56.5132 20.952 56.7342 20.5021C56.9662 20.0393 57.0823 19.5146 57.0823 18.928C57.0823 18.3571 56.9662 17.8407 56.7342 17.377C56.5131 16.9274 56.1762 16.5442 55.7577 16.2666C55.3392 15.9885 54.8427 15.8499 54.2691 15.8499C53.6955 15.8499 53.1915 15.9885 52.758 16.2666C52.3391 16.5443 52.0019 16.9278 51.7808 17.3778C51.544 17.8605 51.4247 18.3918 51.4327 18.9288C51.4327 19.5146 51.5487 20.0393 51.7808 20.5021C52.002 20.9521 52.3392 21.3356 52.758 21.6134C53.1915 21.8906 53.6955 22.03 54.2691 22.03ZM42.7261 24.8763C41.7182 24.8763 40.8346 24.6535 40.0754 24.2055C39.3369 23.7794 38.7267 23.164 38.3082 22.4235C37.8896 21.6827 37.6799 20.8643 37.6799 19.97V8.67492H41.5864V20.2472C41.5864 20.6184 41.719 20.9418 41.9818 21.2199C42.2454 21.4971 42.5703 21.6365 42.9582 21.6365H47.2601V24.8763H42.7261Z" fill="#14424C"/>
</g>
<defs>
<clipPath id="clip0_86_2210">
<rect width="155" height="33" fill="white"/>
</clipPath>
</defs>
</svg>
