<svg width="155" height="33" viewBox="0 0 155 33" fill="none" xmlns="http://www.w3.org/2000/svg">
<g clip-path="url(#clip0_66_3829)">
<path fill-rule="evenodd" clip-rule="evenodd" d="M16.4697 3.76777L18.6555 0L24.8522 3.56152L22.6672 7.32847C22.2835 7.9893 22.8579 8.79285 23.6105 8.64847L27.798 7.8441L29.1532 14.8376L24.9657 15.6412C18.1921 16.9414 13.0208 9.71437 16.4697 3.76777Z" fill="#3A724F"/>
<path fill-rule="evenodd" clip-rule="evenodd" d="M12.6835 29.2318L10.4977 32.9996L4.30021 29.4389L6.48596 25.6711C6.86973 25.0103 6.29532 24.2068 5.54187 24.3511L1.35521 25.1547L0 18.162L4.18749 17.3584C10.9611 16.0582 16.1316 23.2852 12.6835 29.2318Z" fill="#DC8E43"/>
<path fill-rule="evenodd" clip-rule="evenodd" d="M12.8725 3.76777L10.6876 0L4.49006 3.56152L6.67581 7.32847C7.05875 7.9893 6.48517 8.79285 5.73172 8.64847L1.54423 7.8441L0.190674 14.8376L4.37733 15.6412C11.1517 16.9414 16.3231 9.71437 12.8733 3.76777H12.8725Z" fill="#14424C"/>
<path fill-rule="evenodd" clip-rule="evenodd" d="M16.2872 29.2318L18.4713 32.9996L24.6688 29.4389L22.4831 25.6711C22.1001 25.0103 22.6737 24.2068 23.4272 24.3511L27.6138 25.1547L28.969 18.162L24.7816 17.3584C18.008 16.0582 12.8374 23.2852 16.2856 29.2318H16.2872Z" fill="#C85D1B"/>
<path d="M135.522 25.4512V18.4387C135.522 17.4669 135.746 16.5948 136.195 15.8235C136.66 15.0364 137.319 14.4193 138.172 13.9714C139.025 13.5242 140.041 13.3006 141.218 13.3006C141.768 13.2953 142.316 13.3652 142.846 13.5085C143.343 13.6323 143.792 13.8097 144.195 14.0407C144.613 14.2568 144.97 14.5191 145.265 14.8277H145.311C145.627 14.5147 145.987 14.2496 146.381 14.0407C146.813 13.804 147.274 13.6251 147.753 13.5085C148.292 13.3663 148.847 13.2964 149.404 13.3006C150.582 13.3006 151.598 13.5234 152.451 13.9714C153.303 14.4193 153.962 15.0356 154.427 15.8235C154.892 16.5948 155.124 17.466 155.124 18.4387V25.4512H151.496V18.5542C151.496 18.1689 151.396 17.8216 151.195 17.5131C151.01 17.1904 150.746 16.9196 150.427 16.726C150.091 16.5225 149.704 16.4181 149.311 16.4249C148.892 16.4249 148.513 16.5255 148.172 16.726C147.853 16.9193 147.589 17.1902 147.404 17.5131C147.216 17.8277 147.12 18.1881 147.125 18.5542V25.4512H143.521V18.5542C143.521 18.1689 143.42 17.8216 143.218 17.5131C143.03 17.1857 142.757 16.9141 142.428 16.726C142.092 16.5225 141.705 16.4181 141.311 16.4249C140.893 16.4249 140.513 16.5255 140.172 16.726C139.854 16.9193 139.589 17.1902 139.405 17.5131C139.217 17.8279 139.121 18.1882 139.125 18.5542V25.4512H135.522ZM127.638 25.7292C126.414 25.7292 125.351 25.4983 124.453 25.0346C123.569 24.5561 122.887 23.9159 122.406 23.114C121.925 22.2964 121.685 21.3931 121.685 20.4055V13.5778H125.29V20.3131C125.29 20.7297 125.39 21.1158 125.592 21.4706C125.793 21.8097 126.065 22.0877 126.406 22.3038C126.762 22.5043 127.166 22.605 127.615 22.605C128.049 22.605 128.436 22.5043 128.778 22.3038C129.134 22.0877 129.414 21.8097 129.615 21.4706C129.816 21.1158 129.917 20.7297 129.917 20.3131V13.5778H133.521V20.4055C133.521 21.3931 133.289 22.2964 132.824 23.114C132.359 23.9159 131.685 24.5569 130.801 25.0346C129.932 25.4974 128.878 25.7292 127.638 25.7292ZM110.075 25.4512V22.605H115.819C115.974 22.605 116.113 22.5736 116.238 22.5118C116.361 22.435 116.462 22.3344 116.539 22.2114C116.615 22.0899 116.656 21.9495 116.656 21.8064C116.656 21.6632 116.615 21.5229 116.539 21.4013C116.467 21.2823 116.362 21.186 116.238 21.1233C116.112 21.0458 115.967 21.0057 115.819 21.0078H113.726C112.95 21.0078 112.245 20.884 111.61 20.6374C111.007 20.3887 110.49 19.9704 110.121 19.4337C109.765 18.8784 109.587 18.1607 109.587 17.2812C109.587 16.6023 109.749 15.9852 110.075 15.43C110.414 14.8764 110.885 14.415 111.447 14.0869C112.033 13.7483 112.7 13.5725 113.377 13.5778H119.121V16.448H113.935C113.729 16.4439 113.529 16.5186 113.377 16.6567C113.309 16.7229 113.256 16.8021 113.22 16.8897C113.183 16.9772 113.166 17.0712 113.168 17.1658C113.168 17.3819 113.238 17.5667 113.377 17.721C113.529 17.8591 113.729 17.9338 113.935 17.9297H115.982C116.849 17.9297 117.594 18.0609 118.214 18.3224C118.849 18.5699 119.338 18.9708 119.679 19.5269C120.036 20.0821 120.214 20.7991 120.214 21.6785C120.214 22.3731 120.036 23.0059 119.679 23.576C119.341 24.1442 118.86 24.6151 118.283 24.9422C117.71 25.2821 117.059 25.4512 116.331 25.4512H110.075ZM102.222 13.3006C103.23 13.3006 104.121 13.4623 104.896 13.7866C105.657 14.0754 106.342 14.5347 106.896 15.1288C107.461 15.711 107.897 16.405 108.175 17.1658C108.469 17.9371 108.617 18.7935 108.617 19.7348C108.617 20.9071 108.369 21.9491 107.873 22.8591C107.414 23.7312 106.722 24.4601 105.873 24.9653C105.021 25.4743 104.028 25.7292 102.897 25.7292C102.416 25.7292 101.959 25.6674 101.524 25.5445C101.113 25.4241 100.721 25.2445 100.362 25.0115C100.024 24.7828 99.7316 24.4922 99.5018 24.1551H99.4314V30.4746H95.8274V19.734C95.8274 18.4222 96.091 17.2879 96.6182 16.3317C97.1292 15.3905 97.9049 14.6181 98.8503 14.1091C99.8118 13.5696 100.936 13.3006 102.222 13.3006ZM102.222 16.4018C101.664 16.4018 101.176 16.5404 100.758 16.8184C100.354 17.0808 100.044 17.4512 99.8268 17.9297C99.6104 18.3917 99.5018 18.9172 99.5018 19.503C99.5018 20.0896 99.6104 20.6143 99.8268 21.0771C100.044 21.5399 100.354 21.9103 100.758 22.1883C101.176 22.4507 101.664 22.5819 102.222 22.5819C102.78 22.5819 103.261 22.4499 103.664 22.1883C104.069 21.9084 104.391 21.5243 104.594 21.0771C104.827 20.6143 104.943 20.0896 104.943 19.503C104.943 18.9172 104.827 18.3925 104.594 17.9297C104.377 17.4512 104.067 17.0799 103.664 16.8184C103.261 16.5404 102.78 16.4018 102.222 16.4018ZM90.3502 25.4512V13.5778H93.9782V25.4512H90.3502ZM92.1638 12.2355C91.5902 12.2355 91.0945 12.0276 90.676 11.611C90.2574 11.1944 90.0477 10.7002 90.0477 10.1293C90.0477 9.55843 90.2574 9.06508 90.676 8.64845C91.0945 8.21615 91.5902 8 92.1638 8C92.7374 8 93.2339 8.21615 93.6525 8.64845C94.071 9.06508 94.2799 9.55843 94.2799 10.1293C94.2799 10.7002 94.071 11.1936 93.6525 11.611C93.2339 12.0276 92.7374 12.2355 92.1638 12.2355ZM82.4659 25.7292C81.2417 25.7292 80.1409 25.4595 79.1637 24.9191C78.205 24.3961 77.4028 23.6295 76.8387 22.6974C76.2809 21.7561 76.0015 20.6992 76.0015 19.5261C76.0015 18.3381 76.2809 17.2812 76.8387 16.3556C77.4028 15.4235 78.205 14.6569 79.1637 14.1339C80.1409 13.5778 81.2417 13.3006 82.4659 13.3006C83.691 13.3006 84.7835 13.5778 85.745 14.1339C86.7002 14.6533 87.4958 15.4212 88.0468 16.3556C88.6203 17.2812 88.9071 18.3381 88.9071 19.5261C88.9071 20.6992 88.6203 21.7561 88.0468 22.6974C87.4958 23.6318 86.7002 24.3997 85.745 24.9191C84.7686 25.4595 83.6753 25.7292 82.4659 25.7292ZM82.4659 22.605C83.0395 22.605 83.536 22.4655 83.9546 22.1883C84.3733 21.9106 84.7103 21.5271 84.931 21.0771C85.1639 20.6143 85.28 20.0896 85.28 19.503C85.28 18.9321 85.1639 18.4156 84.931 17.952C84.7102 17.5022 84.3732 17.119 83.9546 16.8415C83.536 16.5635 83.0395 16.4249 82.4659 16.4249C81.8924 16.4249 81.3884 16.5635 80.9549 16.8415C80.536 17.1193 80.1988 17.5028 79.9776 17.9528C79.7408 18.4354 79.6215 18.9668 79.6295 19.5038C79.6295 20.0896 79.7456 20.6143 79.9776 21.0771C80.1988 21.5271 80.5361 21.9106 80.9549 22.1883C81.3884 22.4655 81.8924 22.605 82.4659 22.605ZM64.2878 30.1504V27.0715H70.24C70.4729 27.0715 70.6669 26.9948 70.8219 26.8405C70.8974 26.7741 70.9574 26.6919 70.9975 26.5998C71.0376 26.5077 71.0569 26.4079 71.054 26.3076V23.6923H70.9843C70.6899 24.0331 70.3541 24.3363 69.9847 24.5949C69.6432 24.8424 69.2553 25.0272 68.8218 25.1509C68.3604 25.28 67.8828 25.3422 67.4036 25.3357C66.3493 25.3357 65.4035 25.0882 64.5663 24.5949C63.7449 24.0858 63.0934 23.3838 62.6127 22.4887C62.1485 21.5944 61.9156 20.5755 61.9156 19.4337C61.9156 18.3075 62.156 17.2812 62.6367 16.3556C63.1324 15.43 63.8535 14.6891 64.7993 14.1339C65.7442 13.5778 66.8996 13.3006 68.264 13.3006C69.5661 13.3006 70.6901 13.5704 71.6358 14.1108C72.5855 14.6238 73.362 15.4044 73.868 16.3548C74.3952 17.3118 74.6587 18.4387 74.6587 19.7348V26.678C74.6587 27.7422 74.3413 28.5838 73.7055 29.2009C73.0855 29.8336 72.2252 30.1496 71.1244 30.1496L64.2878 30.1504ZM68.2872 22.3269C68.845 22.3269 69.3257 22.2032 69.7294 21.9565C70.1277 21.6991 70.4487 21.3394 70.6586 20.9154C70.879 20.469 70.9907 19.9772 70.9843 19.4799C70.9843 18.9247 70.8766 18.4156 70.6594 17.9528C70.4422 17.49 70.1322 17.127 69.7286 16.8646C69.3257 16.5866 68.845 16.448 68.2863 16.448C67.7443 16.448 67.2635 16.5792 66.8449 16.8415C66.4421 17.1039 66.1321 17.4586 65.9149 17.9058C65.6986 18.3538 65.59 18.8545 65.59 19.4106C65.59 19.9509 65.6978 20.4443 65.9149 20.8923C66.1321 21.3238 66.4421 21.6711 66.8457 21.9334C67.2635 22.1958 67.7443 22.3269 68.2872 22.3269ZM54.5891 25.7292C53.3649 25.7292 52.2641 25.4595 51.2877 24.9191C50.3287 24.3962 49.5262 23.6296 48.9619 22.6974C48.4041 21.7561 48.1247 20.6992 48.1247 19.5261C48.1247 18.3381 48.4041 17.2812 48.9619 16.3556C49.5262 15.4234 50.3287 14.6567 51.2877 14.1339C52.2641 13.5778 53.3649 13.3006 54.5891 13.3006C55.8142 13.3006 56.9067 13.5778 57.8682 14.1339C58.8234 14.6534 59.619 15.4213 60.17 16.3556C60.7436 17.2812 61.0303 18.3381 61.0303 19.5261C61.0303 20.6992 60.7436 21.7561 60.17 22.6974C59.619 23.6317 58.8234 24.3996 57.8682 24.9191C56.8918 25.4595 55.7985 25.7292 54.5891 25.7292ZM54.5891 22.605C55.1627 22.605 55.6584 22.4655 56.0778 22.1883C56.4963 21.9104 56.8333 21.527 57.0542 21.0771C57.2863 20.6143 57.4023 20.0896 57.4023 19.503C57.4023 18.9321 57.2863 18.4156 57.0542 17.952C56.8332 17.5024 56.4962 17.1192 56.0778 16.8415C55.6592 16.5635 55.1627 16.4249 54.5891 16.4249C54.0156 16.4249 53.5116 16.5635 53.0781 16.8415C52.6592 17.1193 52.322 17.5028 52.1009 17.9528C51.864 18.4354 51.7448 18.9668 51.7527 19.5038C51.7527 20.0896 51.8688 20.6143 52.1009 21.0771C52.322 21.5271 52.6593 21.9106 53.0781 22.1883C53.5116 22.4655 54.0156 22.605 54.5891 22.605ZM43.0462 25.4512C42.0383 25.4512 41.1547 25.2285 40.3955 24.7805C39.657 24.3543 39.0468 23.739 38.6283 22.9985C38.2097 22.2577 38 21.4392 38 20.5449V9.24988H41.9065V20.8221C41.9065 21.1934 42.0391 21.5168 42.3019 21.7948C42.5655 22.072 42.8904 22.2114 43.2783 22.2114H47.5802V25.4512H43.0462Z" fill="white"/>
</g>
<defs>
<clipPath id="clip0_66_3829">
<rect width="155" height="33" fill="white"/>
</clipPath>
</defs>
</svg>
