<svg width="38" height="38" viewBox="0 0 38 38" fill="none" xmlns="http://www.w3.org/2000/svg">
<circle cx="19" cy="19" r="19" fill="#E5E5FE" fill-opacity="0.7"/>
<path d="M27.6201 15.45C26.5701 10.83 22.5401 8.75 19.0001 8.75C19.0001 8.75 19.0001 8.75 18.9901 8.75C15.4601 8.75 11.4201 10.82 10.3701 15.44C9.2001 20.6 12.3601 24.97 15.2201 27.72C16.2801 28.74 17.6401 29.25 19.0001 29.25C20.3601 29.25 21.7201 28.74 22.7701 27.72C25.6301 24.97 28.7901 20.61 27.6201 15.45ZM19.0001 20.46C17.2601 20.46 15.8501 19.05 15.8501 17.31C15.8501 15.57 17.2601 14.16 19.0001 14.16C20.7401 14.16 22.1501 15.57 22.1501 17.31C22.1501 19.05 20.7401 20.46 19.0001 20.46Z" fill="#5251FA"/>
</svg>
