<svg width="30" height="33" viewBox="0 0 30 33" fill="none" xmlns="http://www.w3.org/2000/svg">
<path fill-rule="evenodd" clip-rule="evenodd" d="M16.4697 3.76777L18.6555 0L24.8522 3.56152L22.6672 7.32847C22.2835 7.9893 22.8579 8.79285 23.6105 8.64847L27.798 7.8441L29.1532 14.8376L24.9657 15.6412C18.1921 16.9414 13.0208 9.71437 16.4697 3.76777Z" fill="#3A724F"/>
<path fill-rule="evenodd" clip-rule="evenodd" d="M12.6835 29.2318L10.4977 32.9996L4.30021 29.4389L6.48596 25.6711C6.86973 25.0103 6.29532 24.2068 5.54187 24.3511L1.35521 25.1547L0 18.162L4.18749 17.3584C10.9611 16.0582 16.1316 23.2852 12.6835 29.2318Z" fill="#DC8E43"/>
<path fill-rule="evenodd" clip-rule="evenodd" d="M12.8725 3.76777L10.6876 0L4.49006 3.56152L6.67581 7.32847C7.05875 7.9893 6.48517 8.79285 5.73172 8.64847L1.54423 7.8441L0.190674 14.8376L4.37733 15.6412C11.1517 16.9414 16.3231 9.71437 12.8733 3.76777H12.8725Z" fill="#14424C"/>
<path fill-rule="evenodd" clip-rule="evenodd" d="M16.2872 29.2318L18.4713 32.9996L24.6688 29.4389L22.4831 25.6711C22.1001 25.0103 22.6737 24.2068 23.4272 24.3511L27.6138 25.1547L28.969 18.162L24.7816 17.3584C18.008 16.0582 12.8374 23.2852 16.2856 29.2318H16.2872Z" fill="#C85D1B"/>
</svg>
